<svg width="80" height="111" viewBox="0 0 128 111" fill="none" xmlns="http://www.w3.org/2000/svg">
<g clip-path="url(#clip0_2_43)">
<path fill-rule="evenodd" clip-rule="evenodd" d="M86.6202 21.2993C82.1152 16.5834 75.1097 13.2904 65.0519 13.2904H60.6364H26.4156H22L22 2.39292e-07H26.4156L65.0519 0C78.1614 0 88.8183 4.39279 96.1838 12.1032C103.494 19.7559 107 30.0865 107 40.9787C107 51.8708 103.494 62.2016 96.1838 69.8542C88.8183 77.5647 78.1614 81.9574 65.0519 81.9574H48.4935V68.667H65.0519C75.1097 68.667 82.1152 65.374 86.6202 60.6581C91.1803 55.8845 93.7532 49.0485 93.7532 40.9787C93.7532 32.909 91.1803 26.073 86.6202 21.2993ZM35.2468 47.5505V81.9574H22L22 63.1294V18.8281L35.2468 29.9033V30.1313L48.5765 41.462L60.6364 31.236V31.0109L73.8831 19.9355V35.441V64.2369H60.6364V47.5758L48.6847 58.5241L48.4638 58.7855L35.2468 47.5505Z" fill="#f22222"/>
</g>
<path d="M12.0507 92.9409V95.6391H7.81061V107H4.64579V95.6391H0.405746V92.9409H12.0507ZM11.849 101.746C11.849 100.799 11.9911 99.9738 12.2751 99.2705C12.5726 98.5537 12.9581 97.9586 13.4315 97.4853C13.9048 97.0119 14.4458 96.6535 15.0544 96.41C15.6766 96.1666 16.3123 96.0449 16.9614 96.0449C18.4762 96.0449 19.6732 96.5115 20.5523 97.4447C21.4314 98.3644 21.871 99.7236 21.871 101.522C21.871 101.698 21.8642 101.894 21.8507 102.111C21.8372 102.314 21.8236 102.496 21.8101 102.659H14.953C15.0206 103.281 15.3114 103.774 15.8254 104.139C16.3393 104.505 17.0291 104.687 17.8947 104.687C18.4492 104.687 18.9902 104.64 19.5176 104.545C20.0586 104.437 20.4982 104.309 20.8363 104.16L21.2421 106.615C21.0798 106.696 20.8634 106.777 20.5929 106.858C20.3224 106.939 20.0181 107.007 19.6799 107.061C19.3553 107.128 19.0037 107.183 18.625 107.223C18.2463 107.264 17.8676 107.284 17.4889 107.284C16.5286 107.284 15.6901 107.142 14.9733 106.858C14.27 106.574 13.6817 106.189 13.2083 105.702C12.7485 105.201 12.4036 104.613 12.1736 103.937C11.9572 103.26 11.849 102.53 11.849 101.746ZM18.9496 100.589C18.9361 100.332 18.8887 100.082 18.8076 99.8386C18.74 99.5951 18.625 99.3787 18.4627 99.1894C18.3139 99 18.1178 98.8445 17.8744 98.7228C17.6445 98.6011 17.3537 98.5402 17.002 98.5402C16.6639 98.5402 16.3731 98.6011 16.1297 98.7228C15.8862 98.831 15.6833 98.9798 15.521 99.1691C15.3587 99.3585 15.2303 99.5816 15.1356 99.8386C15.0544 100.082 14.9936 100.332 14.953 100.589H18.9496ZM23.6965 101.664C23.6965 100.894 23.8182 100.17 24.0617 99.4937C24.3187 98.8039 24.6838 98.2088 25.1572 97.7084C25.6306 97.1945 26.2054 96.7887 26.8816 96.4912C27.5579 96.1936 28.3288 96.0449 29.1944 96.0449C29.7624 96.0449 30.2831 96.099 30.7565 96.2072C31.2299 96.3018 31.6897 96.4438 32.136 96.6332L31.5071 99.0474C31.2231 98.9392 30.912 98.8445 30.5739 98.7634C30.2358 98.6822 29.8571 98.6416 29.4378 98.6416C28.5452 98.6416 27.8757 98.9189 27.4294 99.4734C26.9966 100.028 26.7802 100.758 26.7802 101.664C26.7802 102.625 26.9831 103.369 27.3888 103.896C27.8081 104.424 28.5316 104.687 29.5595 104.687C29.9247 104.687 30.3169 104.653 30.7362 104.586C31.1555 104.518 31.5409 104.41 31.8926 104.261L32.3186 106.736C31.967 106.885 31.5274 107.014 30.9999 107.122C30.4725 107.23 29.8909 107.284 29.2552 107.284C28.2814 107.284 27.4429 107.142 26.7396 106.858C26.0363 106.56 25.4547 106.161 24.9949 105.661C24.5486 105.161 24.2172 104.572 24.0008 103.896C23.7979 103.206 23.6965 102.462 23.6965 101.664ZM34.3473 107V91.744L37.3701 91.2571V96.3695C37.573 96.3018 37.83 96.241 38.1411 96.1869C38.4657 96.1192 38.7767 96.0854 39.0743 96.0854C39.9399 96.0854 40.6567 96.2072 41.2247 96.4506C41.8063 96.6805 42.2661 97.0119 42.6043 97.4447C42.9559 97.8775 43.1994 98.3914 43.3346 98.9865C43.4834 99.5816 43.5578 100.244 43.5578 100.975V107H40.535V101.34C40.535 100.366 40.4065 99.6763 40.1495 99.2705C39.9061 98.8648 39.4462 98.6619 38.77 98.6619C38.4995 98.6619 38.2425 98.689 37.9991 98.7431C37.7691 98.7836 37.5595 98.831 37.3701 98.8851V107H34.3473ZM46.2939 96.6941C46.8078 96.5453 47.4705 96.41 48.282 96.2883C49.0935 96.1531 49.9456 96.0854 50.8382 96.0854C51.7444 96.0854 52.495 96.2072 53.0901 96.4506C53.6987 96.6805 54.1789 97.0119 54.5305 97.4447C54.8821 97.8775 55.1324 98.3914 55.2811 98.9865C55.4299 99.5816 55.5043 100.244 55.5043 100.975V107H52.4815V101.34C52.4815 100.366 52.353 99.6763 52.096 99.2705C51.8391 98.8648 51.3589 98.6619 50.6556 98.6619C50.4392 98.6619 50.2093 98.6754 49.9659 98.7025C49.7224 98.716 49.506 98.7363 49.3167 98.7634V107H46.2939V96.6941ZM68.2217 101.644C68.2217 102.483 68.1 103.254 67.8566 103.957C67.6131 104.647 67.2615 105.242 66.8016 105.742C66.3418 106.229 65.7873 106.608 65.1381 106.878C64.5024 107.149 63.7856 107.284 62.9876 107.284C62.2032 107.284 61.4863 107.149 60.8372 106.878C60.2015 106.608 59.6537 106.229 59.1939 105.742C58.734 105.242 58.3756 104.647 58.1187 103.957C57.8617 103.254 57.7332 102.483 57.7332 101.644C57.7332 100.806 57.8617 100.041 58.1187 99.3517C58.3892 98.6619 58.7543 98.0736 59.2142 97.5867C59.6875 97.0998 60.2421 96.7211 60.8777 96.4506C61.5269 96.1801 62.2302 96.0449 62.9876 96.0449C63.7585 96.0449 64.4618 96.1801 65.0975 96.4506C65.7467 96.7211 66.3012 97.0998 66.761 97.5867C67.2209 98.0736 67.5793 98.6619 67.8363 99.3517C68.0932 100.041 68.2217 100.806 68.2217 101.644ZM65.1381 101.644C65.1381 100.711 64.9487 99.9806 64.57 99.4531C64.2048 98.9121 63.6774 98.6416 62.9876 98.6416C62.2978 98.6416 61.7636 98.9121 61.3849 99.4531C61.0062 99.9806 60.8169 100.711 60.8169 101.644C60.8169 102.577 61.0062 103.321 61.3849 103.876C61.7636 104.417 62.2978 104.687 62.9876 104.687C63.6774 104.687 64.2048 104.417 64.57 103.876C64.9487 103.321 65.1381 102.577 65.1381 101.644ZM74.8237 107.203C73.9445 107.189 73.2277 107.095 72.6732 106.919C72.1322 106.743 71.6994 106.5 71.3748 106.189C71.0637 105.864 70.8473 105.478 70.7256 105.032C70.6174 104.572 70.5633 104.058 70.5633 103.49V91.744L73.5861 91.2571V102.882C73.5861 103.152 73.6064 103.396 73.647 103.612C73.6876 103.828 73.762 104.011 73.8702 104.16C73.9919 104.309 74.1609 104.43 74.3773 104.525C74.5937 104.62 74.8845 104.68 75.2497 104.708L74.8237 107.203ZM86.9637 101.644C86.9637 102.483 86.842 103.254 86.5985 103.957C86.3551 104.647 86.0034 105.242 85.5436 105.742C85.0837 106.229 84.5292 106.608 83.88 106.878C83.2444 107.149 82.5275 107.284 81.7296 107.284C80.9451 107.284 80.2283 107.149 79.5791 106.878C78.9435 106.608 78.3957 106.229 77.9359 105.742C77.476 105.242 77.1176 104.647 76.8606 103.957C76.6037 103.254 76.4752 102.483 76.4752 101.644C76.4752 100.806 76.6037 100.041 76.8606 99.3517C77.1311 98.6619 77.4963 98.0736 77.9561 97.5867C78.4295 97.0998 78.984 96.7211 79.6197 96.4506C80.2689 96.1801 80.9722 96.0449 81.7296 96.0449C82.5005 96.0449 83.2038 96.1801 83.8395 96.4506C84.4886 96.7211 85.0432 97.0998 85.503 97.5867C85.9629 98.0736 86.3213 98.6619 86.5782 99.3517C86.8352 100.041 86.9637 100.806 86.9637 101.644ZM83.88 101.644C83.88 100.711 83.6907 99.9806 83.312 99.4531C82.9468 98.9121 82.4193 98.6416 81.7296 98.6416C81.0398 98.6416 80.5056 98.9121 80.1269 99.4531C79.7482 99.9806 79.5588 100.711 79.5588 101.644C79.5588 102.577 79.7482 103.321 80.1269 103.876C80.5056 104.417 81.0398 104.687 81.7296 104.687C82.4193 104.687 82.9468 104.417 83.312 103.876C83.6907 103.321 83.88 102.577 83.88 101.644ZM91.8818 101.32C91.8818 103.01 92.5648 103.855 93.9308 103.855C94.2419 103.855 94.5327 103.815 94.8032 103.734C95.0736 103.653 95.3036 103.558 95.4929 103.45V98.6213C95.3441 98.5943 95.1683 98.574 94.9655 98.5605C94.7626 98.5334 94.5259 98.5199 94.2554 98.5199C93.4574 98.5199 92.8623 98.7836 92.4701 99.3111C92.0779 99.8386 91.8818 100.508 91.8818 101.32ZM98.5157 105.661C98.5157 107.406 98.0694 108.697 97.1768 109.536C96.2976 110.388 94.9316 110.814 93.0787 110.814C92.4295 110.814 91.7803 110.753 91.1312 110.631C90.482 110.523 89.8801 110.374 89.3256 110.185L89.8531 107.649C90.3264 107.839 90.8201 107.987 91.334 108.096C91.8615 108.204 92.4566 108.258 93.1193 108.258C93.9849 108.258 94.5935 108.068 94.9452 107.69C95.3103 107.311 95.4929 106.824 95.4929 106.229V105.844C95.1683 105.992 94.8302 106.107 94.4786 106.189C94.1404 106.256 93.7685 106.29 93.3628 106.29C91.8885 106.29 90.7592 105.857 89.9748 104.992C89.1903 104.112 88.7981 102.888 88.7981 101.32C88.7981 100.535 88.9198 99.8251 89.1633 99.1894C89.4067 98.5402 89.7584 97.9857 90.2182 97.5258C90.6916 97.066 91.2664 96.7143 91.9426 96.4709C92.6189 96.2139 93.383 96.0854 94.2351 96.0854C94.6003 96.0854 94.9722 96.1057 95.3509 96.1463C95.7431 96.1733 96.1286 96.2139 96.5073 96.268C96.886 96.3221 97.2444 96.3897 97.5825 96.4709C97.9342 96.5385 98.2452 96.6129 98.5157 96.6941V105.661ZM104.374 107H101.351V96.3289H104.374V107ZM104.658 93.2452C104.658 93.7997 104.475 94.2393 104.11 94.5639C103.758 94.875 103.339 95.0305 102.852 95.0305C102.365 95.0305 101.939 94.875 101.574 94.5639C101.222 94.2393 101.047 93.7997 101.047 93.2452C101.047 92.6907 101.222 92.2579 101.574 91.9468C101.939 91.6222 102.365 91.4599 102.852 91.4599C103.339 91.4599 103.758 91.6222 104.11 91.9468C104.475 92.2579 104.658 92.6907 104.658 93.2452ZM106.708 101.746C106.708 100.799 106.85 99.9738 107.134 99.2705C107.432 98.5537 107.817 97.9586 108.29 97.4853C108.764 97.0119 109.305 96.6535 109.913 96.41C110.536 96.1666 111.171 96.0449 111.82 96.0449C113.335 96.0449 114.532 96.5115 115.411 97.4447C116.29 98.3644 116.73 99.7236 116.73 101.522C116.73 101.698 116.723 101.894 116.71 102.111C116.696 102.314 116.683 102.496 116.669 102.659H109.812C109.88 103.281 110.17 103.774 110.684 104.139C111.198 104.505 111.888 104.687 112.754 104.687C113.308 104.687 113.849 104.64 114.377 104.545C114.918 104.437 115.357 104.309 115.695 104.16L116.101 106.615C115.939 106.696 115.722 106.777 115.452 106.858C115.181 106.939 114.877 107.007 114.539 107.061C114.214 107.128 113.863 107.183 113.484 107.223C113.105 107.264 112.727 107.284 112.348 107.284C111.388 107.284 110.549 107.142 109.832 106.858C109.129 106.574 108.541 106.189 108.067 105.702C107.607 105.201 107.263 104.613 107.033 103.937C106.816 103.26 106.708 102.53 106.708 101.746ZM113.809 100.589C113.795 100.332 113.748 100.082 113.667 99.8386C113.599 99.5951 113.484 99.3787 113.322 99.1894C113.173 99 112.977 98.8445 112.733 98.7228C112.503 98.6011 112.213 98.5402 111.861 98.5402C111.523 98.5402 111.232 98.6011 110.989 98.7228C110.745 98.831 110.542 98.9798 110.38 99.1691C110.218 99.3585 110.089 99.5816 109.995 99.8386C109.913 100.082 109.853 100.332 109.812 100.589H113.809ZM122.126 104.829C122.681 104.829 123.073 104.775 123.303 104.667C123.533 104.559 123.648 104.349 123.648 104.038C123.648 103.795 123.499 103.585 123.201 103.409C122.904 103.22 122.451 103.01 121.842 102.78C121.369 102.604 120.936 102.422 120.544 102.232C120.165 102.043 119.84 101.82 119.57 101.563C119.299 101.293 119.09 100.975 118.941 100.61C118.792 100.244 118.718 99.8048 118.718 99.2908C118.718 98.29 119.09 97.4988 119.834 96.9172C120.577 96.3356 121.599 96.0449 122.897 96.0449C123.546 96.0449 124.168 96.1057 124.763 96.2274C125.358 96.3356 125.832 96.4574 126.183 96.5926L125.656 98.9459C125.304 98.8242 124.919 98.716 124.5 98.6213C124.094 98.5267 123.634 98.4793 123.12 98.4793C122.173 98.4793 121.7 98.7431 121.7 99.2705C121.7 99.3923 121.72 99.5005 121.761 99.5951C121.801 99.6898 121.883 99.7845 122.004 99.8792C122.126 99.9603 122.288 100.055 122.491 100.163C122.708 100.258 122.978 100.366 123.303 100.488C123.965 100.731 124.513 100.975 124.946 101.218C125.379 101.448 125.717 101.705 125.96 101.989C126.217 102.26 126.393 102.564 126.488 102.902C126.596 103.24 126.65 103.632 126.65 104.079C126.65 105.134 126.251 105.932 125.453 106.473C124.669 107.014 123.553 107.284 122.106 107.284C121.159 107.284 120.368 107.203 119.732 107.041C119.11 106.878 118.677 106.743 118.434 106.635L118.941 104.18C119.455 104.383 119.982 104.545 120.523 104.667C121.064 104.775 121.599 104.829 122.126 104.829Z" fill="black"/>
<defs>
<clipPath id="clip0_2_43">
<rect width="85" height="82" fill="white" transform="translate(22)"/>
</clipPath>
</defs>
</svg>
